<svg xmlns="http://www.w3.org/2000/svg" viewBox="0 0 800 200">
  <!-- Koru Pattern (Spiral Fern Unfurling) -->
  <defs>
    <linearGradient id="koruGrad" x1="0%" y1="0%" x2="100%" y2="100%">
      <stop offset="0%" style="stop-color:#1a4d2e;stop-opacity:1" />
      <stop offset="100%" style="stop-color:#2d5a3d;stop-opacity:1" />
    </linearGradient>
  </defs>
  
  <!-- Main Koru Spiral -->
  <path d="M 100 100 Q 120 80, 140 80 Q 160 80, 170 100 Q 180 120, 165 135 Q 150 150, 130 145 Q 110 140, 105 125 Q 100 110, 110 105" 
        fill="none" stroke="url(#koruGrad)" stroke-width="8" stroke-linecap="round"/>
  
  <!-- Smaller Koru -->
  <path d="M 200 120 Q 210 110, 220 110 Q 230 110, 235 120 Q 240 130, 232 137 Q 225 145, 215 142" 
        fill="none" stroke="url(#koruGrad)" stroke-width="6" stroke-linecap="round"/>
  
  <!-- Kowhaiwhai Pattern (Rafter Pattern) -->
  <g transform="translate(300, 0)">
    <!-- Red section -->
    <path d="M 0 100 L 50 50 L 100 100 L 50 150 Z" fill="#C41E3A"/>
    <!-- Black section -->
    <path d="M 100 100 L 150 50 L 200 100 L 150 150 Z" fill="#000000"/>
    <!-- White section -->
    <path d="M 200 100 L 250 50 L 300 100 L 250 150 Z" fill="#FFFFFF" stroke="#000" stroke-width="2"/>
  </g>
  
  <!-- Decorative Fern Fronds -->
  <g transform="translate(650, 50)">
    <path d="M 50 0 Q 45 20, 40 40 Q 35 60, 30 80" 
          fill="none" stroke="#2d5a3d" stroke-width="3"/>
    <path d="M 50 20 Q 60 25, 65 30" fill="none" stroke="#2d5a3d" stroke-width="2"/>
    <path d="M 50 40 Q 60 45, 65 50" fill="none" stroke="#2d5a3d" stroke-width="2"/>
    <path d="M 50 60 Q 60 65, 65 70" fill="none" stroke="#2d5a3d" stroke-width="2"/>
  </g>
</svg>

