<svg xmlns="http://www.w3.org/2000/svg" viewBox="0 0 100 100" fill="none">
  <!-- Basket body - tan woven color -->
  <path d="M20 30 L80 30 L80 75 Q80 85 70 88 L30 88 Q20 85 20 75 Z" 
        fill="#D2B48C" 
        stroke="#1a1a1a" 
        stroke-width="3" 
        stroke-linejoin="round"/>
  
  <!-- Handle - curved -->
  <path d="M28 30 L28 16 Q28 10 50 10 Q72 10 72 16 L72 30" 
        stroke="#8B6F47" 
        stroke-width="4" 
        fill="none" 
        stroke-linecap="round"/>
  
  <!-- Horizontal weave pattern -->
  <line x1="20" y1="40" x2="80" y2="40" stroke="#A0826D" stroke-width="2"/>
  <line x1="20" y1="50" x2="80" y2="50" stroke="#A0826D" stroke-width="2"/>
  <line x1="20" y1="60" x2="80" y2="60" stroke="#A0826D" stroke-width="2"/>
  <line x1="20" y1="70" x2="80" y2="70" stroke="#A0826D" stroke-width="2"/>
  <line x1="20" y1="80" x2="80" y2="80" stroke="#A0826D" stroke-width="2"/>
  
  <!-- Vertical weave pattern -->
  <line x1="30" y1="30" x2="30" y2="88" stroke="#8B7355" stroke-width="2"/>
  <line x1="40" y1="30" x2="40" y2="88" stroke="#8B7355" stroke-width="2"/>
  <line x1="50" y1="30" x2="50" y2="88" stroke="#8B7355" stroke-width="2"/>
  <line x1="60" y1="30" x2="60" y2="88" stroke="#8B7355" stroke-width="2"/>
  <line x1="70" y1="30" x2="70" y2="88" stroke="#8B7355" stroke-width="2"/>
  
  <!-- Gold accent dots at intersections -->
  <circle cx="30" cy="40" r="3" fill="#F5A623"/>
  <circle cx="50" cy="60" r="3" fill="#F5A623"/>
  <circle cx="70" cy="80" r="3" fill="#F5A623"/>
  
  <!-- Small koru details on handle -->
  <path d="M40 14 Q38 12 40 11 Q42 12 40 14" 
        fill="#35A572" 
        stroke="#1a1a1a" 
        stroke-width="0.8"/>
  <path d="M60 14 Q58 12 60 11 Q62 12 60 14" 
        fill="#35A572" 
        stroke="#1a1a1a" 
        stroke-width="0.8"/>
</svg>
